<svg xmlns="http://www.w3.org/2000/svg" xmlns:xlink="http://www.w3.org/1999/xlink" fill="none" version="1.1" width="14" height="18" viewBox="0 0 14 18"><defs><linearGradient x1="0.5" y1="0.5851120948791504" x2="0.5" y2="0.9559251666069031" id="master_svg0_287_00486"><stop offset="0%" stop-color="#C36E57" stop-opacity="1"/><stop offset="100%" stop-color="#F2B892" stop-opacity="1"/></linearGradient></defs><g style="mix-blend-mode:passthrough"><g style="mix-blend-mode:passthrough"><g><path d="M3.1764707565307617,10.195121765136719L10.823530756530761,10.195121765136719L10.823530756530761,18.00000176513672L7.000000756530762,16.653121765136717L3.1764707565307617,18.00000176513672L3.1764707565307617,10.195121765136719Z" fill="url(#master_svg0_287_00486)" fill-opacity="1"/></g><g><ellipse cx="7" cy="8.634146213531494" rx="6.5" ry="6.634146213531494" fill="#C48D7B" fill-opacity="1"/><ellipse cx="7" cy="8.634146213531494" rx="6.5" ry="6.634146213531494" fill-opacity="0" stroke-opacity="1" stroke="#FFCC9C" fill="none" stroke-width="1"/></g></g><g style="mix-blend-mode:passthrough"><path d="M7.262700000000001,5.68922C6.63281,5.68922,6.12012,5.85914,5.72168,6.21949C5.299805,6.57984,5.06543,7.07496,5.012695,7.71363L5.97363,7.71363C6.01172,7.31812,6.14648,7.02223,6.36035,6.82301C6.57715,6.62379,6.88477,6.52711,7.27148,6.52711C7.64941,6.52711,7.94531,6.60621,8.14453,6.78785C8.32324,6.95777,8.42285,7.20094,8.42285,7.52613C8.42285,7.8484,8.31445,8.10035,8.11816,8.2732C7.918950000000001,8.44312,7.62305,8.53395,7.22461,8.53395L6.767580000000001,8.53395L6.767580000000001,9.27223L7.2334,9.27223C7.6582,9.27223,7.98047,9.36012,8.19727,9.54176C8.43164,9.72047,8.548829999999999,10.0017,8.548829999999999,10.3796C8.548829999999999,10.7019,8.43164,10.9627,8.21484,11.1795C7.96289,11.4138,7.63184,11.5398,7.21582,11.5398C6.83789,11.5398,6.5332,11.4314,6.29883,11.2146C6.0293,10.9802,5.89453,10.6492,5.87695,10.2156L4.886719,10.2156C4.939453,10.9363,5.191406,11.4841,5.64258,11.8621C6.03809,12.1961,6.56836,12.3689,7.22461,12.3689C7.910159999999999,12.3689,8.47559,12.1697,8.90918,11.7918C9.31348,11.4138,9.52148,10.9275,9.52148,10.3328C9.52148,9.95484,9.41309,9.64137,9.196290000000001,9.3982C9,9.16383,8.709959999999999,8.98219,8.33203,8.865C9.035160000000001,8.63355,9.39551,8.15602,9.39551,7.45289C9.39551,6.90504,9.196290000000001,6.47145,8.81836,6.15797C8.42285,5.84156,7.910159999999999,5.68922,7.262700000000001,5.68922Z" fill="#FFFFFF" fill-opacity="1"/></g></g></svg>