<svg xmlns="http://www.w3.org/2000/svg" xmlns:xlink="http://www.w3.org/1999/xlink" fill="none" version="1.1" width="14" height="18" viewBox="0 0 14 18"><defs><linearGradient x1="0.5" y1="0.5851120948791504" x2="0.5" y2="0.9559251666069031" id="master_svg0_287_00148"><stop offset="0%" stop-color="#5B8ABA" stop-opacity="1"/><stop offset="100%" stop-color="#D2E1F3" stop-opacity="1"/></linearGradient></defs><g style="mix-blend-mode:passthrough"><g style="mix-blend-mode:passthrough"><g><path d="M2.3571428060531616,10.470588684082031L11.642852806053162,10.470588684082031L11.642852806053162,17.99999868408203L7.000002806053161,16.700658684082033L2.3571428060531616,17.99999868408203L2.3571428060531616,10.470588684082031Z" fill="url(#master_svg0_287_00148)" fill-opacity="1"/></g><g><ellipse cx="7" cy="8.58823537826538" rx="6.5" ry="6.588235378265381" fill="#A8B9CA" fill-opacity="1"/><ellipse cx="7" cy="8.58823537826538" rx="6.5" ry="6.588235378265381" fill-opacity="0" stroke-opacity="1" stroke="#DCE2E4" fill="none" stroke-width="1"/></g></g><g style="mix-blend-mode:passthrough"><path d="M7.29785,5.68922C6.612299999999999,5.68922,6.05566,5.9148,5.64258,6.38062C5.235352,6.81422,5.030273,7.39137,5.021484,8.10914L6.00293,8.10914C6.02051,7.58766,6.12891,7.20094,6.34277,6.93141C6.55078,6.65309,6.85547,6.51832,7.262700000000001,6.51832C7.64062,6.51832,7.93652,6.60621,8.13574,6.78785C8.33203,6.96656,8.43164,7.23609,8.43164,7.59645C8.43164,7.97437,8.2793,8.32594,7.99219,8.65113C7.81055,8.83863,7.50586,9.0818,7.07227,9.38941C6.34277,9.89332,5.85645,10.28,5.625,10.5584C5.191406,11.0447,4.983398,11.6013,4.983398,12.24L9.41309,12.24L9.41309,11.3787L6.19922,11.3787C6.33398,11.0271,6.75,10.6199,7.441409999999999,10.1629C8.08008,9.72926,8.522459999999999,9.38941,8.77441,9.12574C9.1875,8.66871,9.4043,8.1648,9.4043,7.60523C9.4043,7.0398,9.205079999999999,6.57984,8.81836,6.21949C8.42285,5.85914,7.910159999999999,5.68922,7.29785,5.68922Z" fill="#FFFFFF" fill-opacity="1"/></g></g></svg>