<?xml version="1.0" standalone="no"?><!DOCTYPE svg PUBLIC "-//W3C//DTD SVG 1.1//EN" "http://www.w3.org/Graphics/SVG/1.1/DTD/svg11.dtd"><svg t="1682058800784" class="icon" viewBox="0 0 1024 1024" version="1.1" xmlns="http://www.w3.org/2000/svg" p-id="1015" xmlns:xlink="http://www.w3.org/1999/xlink" width="200" height="200"><path d="M732.554895 0H142.906366C81.376317 0 31.372319 50.003998 31.372319 111.534047v652.391846c0 143.51234 116.647107 260.072786 259.986124 260.072786h589.735191c61.530049 0 111.534047-50.003998 111.534047-111.534047V260.072786a260.159448 260.159448 0 0 0-259.986124-260.072786z m-193.256352 698.929362H299.331351a49.137377 49.137377 0 0 1 0-98.274754h239.967192a49.050715 49.050715 0 0 1 0 98.274754zM724.668649 416.844418H299.331351a49.050715 49.050715 0 1 1 0-98.10143H724.668649a49.050715 49.050715 0 1 1 0 98.10143z" fill="#FFFFFF" p-id="1016"></path></svg>