<svg xmlns="http://www.w3.org/2000/svg" xmlns:xlink="http://www.w3.org/1999/xlink" fill="none" version="1.1" width="16" height="15" viewBox="0 0 16 15"><defs><clipPath id="master_svg0_267_5936"><rect x="0" y="0" width="16" height="15" rx="0"/></clipPath></defs><g clip-path="url(#master_svg0_267_5936)"><g><path d="M0.270684,5.62976C1.3998,1.5847,5.74964,-0.824009,9.96706,0.259534C13.9885,1.2935,16.8373,5.00821,15.7722,8.82207C15.4478,9.98351,14.6564,10.9737,13.5713,11.5749C12.4909,12.1755,11.1966,12.3388,9.98527,12.0273L8.62198,11.6774C8.37215,11.6152,8.11635,11.7565,8.0532,11.9915C8.02343,12.0935,8.03542,12.2023,8.08652,12.296L8.08964,12.3031L8.09586,12.3152L8.09986,12.3222C8.20206,12.5264,8.40246,13.0163,8.23316,13.6237C8.10388,14.0954,7.78071,14.5001,7.33422,14.7493C6.89272,14.9948,6.36362,15.0613,5.86873,14.9334C1.65175,13.8486,-0.858878,9.67607,0.270684,5.62976ZM11.0886,7.40192C11.0393,7.57189,11.0651,7.75352,11.1606,7.90599C11.2566,8.05846,11.4139,8.16969,11.5987,8.21552L11.9782,8.30925C12.2271,8.37049,12.4928,8.30508,12.675,8.1372C12.8572,7.96931,12.9283,7.72478,12.8616,7.49565C12.7932,7.26513,12.599,7.08622,12.3519,7.02616L11.9725,6.93243C11.7877,6.88681,11.5913,6.91057,11.425,6.99867C11.2593,7.08657,11.1384,7.23195,11.0886,7.40192ZM9.64623,4.08172C9.59646,4.25169,9.62268,4.4329,9.71821,4.58579C9.81375,4.73826,9.9715,4.84949,10.1564,4.8949L10.5354,4.98863C10.9202,5.08361,11.3161,4.87324,11.4192,4.51914C11.5206,4.16207,11.2912,3.79616,10.9091,3.70554L10.5296,3.61181C10.3448,3.56631,10.1484,3.59023,9.98216,3.67846C9.81642,3.76595,9.69555,3.91134,9.64623,4.08172L9.64623,4.08172ZM6.0207,2.9911C5.97093,3.1619,5.9967,3.34311,6.09224,3.49558C6.18822,3.64847,6.34552,3.7597,6.53082,3.80552L6.91031,3.89842C7.29512,3.9934,7.6906,3.78303,7.79369,3.42893C7.89513,3.07199,7.66594,2.70614,7.28401,2.61533L6.90453,2.5216C6.71975,2.47611,6.52333,2.50002,6.35708,2.58826C6.19133,2.67574,6.07047,2.82113,6.0207,2.9911ZM3.13547,5.64767C3.0857,5.81806,3.11148,5.99927,3.20701,6.15174C3.30255,6.30463,3.4603,6.41628,3.6456,6.46168L4.02463,6.555C4.27348,6.61624,4.5392,6.55083,4.72183,6.38295C4.90402,6.21506,4.97512,5.97053,4.90847,5.7414C4.83999,5.51077,4.64557,5.33184,4.39834,5.27191L4.01886,5.17818C3.83414,5.13256,3.63772,5.15632,3.47141,5.24442C3.30566,5.33232,3.18479,5.4777,3.13547,5.64767Z" fill="#27C66F" fill-opacity="1"/></g></g></svg>