<svg xmlns="http://www.w3.org/2000/svg" xmlns:xlink="http://www.w3.org/1999/xlink" fill="none" version="1.1" width="24" height="23" viewBox="0 0 24 23"><defs><clipPath id="master_svg0_13_07218"><rect x="0" y="0" width="24" height="23" rx="0"/></clipPath></defs><g clip-path="url(#master_svg0_13_07218)"><g><path d="M2.666015625,20.944803515625C3.812575625,20.804203515625,4.8778556250000005,20.475503515625,5.857455625,19.962803515625C6.837045625,19.448003515625,7.678945625,18.801203515624998,8.380825625,18.022603515625C9.082715624999999,17.241703515624998,9.628855625,16.337603515625,10.017115624999999,15.310203515625C10.405245625,14.282803515625,10.581325625,13.183973515625,10.542935625,12.013823515625L10.542935625,3.881103515625L2.666015625,3.881238207625L2.666015625,12.068043515625L6.326835625,12.068043515625C6.326835625,13.378773515625,6.069635625,14.486103515625,5.550495625,15.390303515625C5.033625625,16.294503515625,4.072105625,16.975803515625,2.666015625,17.436503515625L2.666015625,20.944803515625ZM14.481315625,20.944803515625C15.627915625,20.804203515625,16.690915625000002,20.475503515625,17.670515625,19.962803515625C18.652315625,19.448003515625,19.492015625,18.801203515624998,20.193915625,18.022603515625C20.898015625,17.241703515624998,21.442015625,16.337703515625,21.830115625,15.310203515625C22.218215625,14.282803515625,22.394315625,13.183973515625,22.358215625,12.013823515625L22.358215625,3.881238207625L14.481415625,3.881238207625L14.481415625,12.068043515625L18.142115625000002,12.068043515625C18.142115625000002,13.378773515625,17.884915624999998,14.486103515625,17.365815625,15.390303515625C16.848915625,16.294503515625,15.887415625,16.975803515625,14.481315625,17.436503515625L14.481315625,20.944803515625Z" fill="#000000" fill-opacity="0.029999999329447746"/></g></g></svg>