<svg xmlns="http://www.w3.org/2000/svg" xmlns:xlink="http://www.w3.org/1999/xlink" fill="none" version="1.1" width="15" height="14" viewBox="0 0 15 14"><g><path d="M4.35872,14L10.6413,14C13.0444,14,15,12.0352,15,9.62086L15,4.37914C15,1.96479,13.0444,0,10.6413,0L4.35872,0C1.95563,0,0,1.96479,0,4.37914L0,9.62086C0,12.0352,1.95563,14,4.35872,14ZM1.09025,4.37685C1.09025,2.56724,2.55527,1.09307,4.35872,1.09307L10.6413,1.09307C12.4425,1.09307,13.9098,2.56496,13.9098,4.37685L13.9098,4.39062L11.511,4.39062C10.1323,4.39062,9.01025,5.51793,9.01025,6.90309C9.01025,8.28826,10.1323,9.41556,11.511,9.41556L13.9098,9.41556L13.9098,9.61858C13.9098,11.4282,12.4447,12.9024,10.6413,12.9024L4.35872,12.9024C2.55754,12.9024,1.09025,11.4305,1.09025,9.61858L1.09025,4.37685ZM13.9098,8.32021L13.9098,5.48598L11.511,5.48598C10.7342,5.48598,10.1005,6.12265,10.1005,6.90309C10.1005,7.68353,10.7342,8.32021,11.511,8.32021L13.9098,8.32021ZM7.76592,4.40663L3.84102,4.40663C3.5412,4.40663,3.2959,4.16246,3.2959,3.85896C3.2959,3.55545,3.53893,3.31128,3.84102,3.31128L7.76592,3.31128C8.06573,3.31128,8.31104,3.55545,8.31104,3.85896C8.31104,4.16246,8.06801,4.40663,7.76592,4.40663ZM11.845,7.40517L11.6179,7.40517C11.3181,7.40517,11.0728,7.161,11.0728,6.85749C11.0728,6.55399,11.3158,6.30981,11.6179,6.30981L11.845,6.30981C12.1448,6.30981,12.3901,6.55399,12.3901,6.85749C12.3901,7.161,12.1471,7.40517,11.845,7.40517Z" fill-rule="evenodd" fill="#4C84FC" fill-opacity="1"/></g></svg>