<svg xmlns="http://www.w3.org/2000/svg" xmlns:xlink="http://www.w3.org/1999/xlink" fill="none" version="1.1" width="16" height="16" viewBox="0 0 16 16"><defs><clipPath id="master_svg0_267_6090"><rect x="0" y="0" width="16" height="16" rx="0"/></clipPath></defs><g clip-path="url(#master_svg0_267_6090)"><g><path d="M8.035168203125,14.35445654296875C7.305568203125,14.35445654296875,6.605568203125,14.04965654296875,6.108768203125,13.51205654296875L1.467967203125,8.49525654296875C0.539967203125,7.49125654296875,0.543967203125,5.92245654296875,1.477567203125,4.923256542968749L3.868768203125,2.3632565429687498C4.365498203125,1.83270054296875,5.059578203125,1.53126656996875,5.786368203125,1.53045654296875L10.177568203125,1.53045654296875C10.923958203125,1.53045654296875,11.637558203125,1.84965654296875,12.135158203125,2.4072565429687502L14.354358203125,4.89365654296875C15.224758203125,5.86885654296875,15.239958203125,7.35365654296875,14.389558203125,8.34725654296875L10.029568203125,13.43845654296875C9.542368203125,14.00695654296875,8.835708203125,14.34045654296875,8.087168203125,14.35525654296875C8.068768203125,14.35445654296875,8.051968203125,14.35445654296875,8.035168203125,14.35445654296875ZM5.785568203125,2.65045654296875C5.370368203125,2.65045654296875,4.970368203125,2.82405654296875,4.687168203125,3.12805654296875L2.2959682031249997,5.68805654296875C1.760767203125,6.26085654296875,1.759167203125,7.16005654296875,2.2911682031250002,7.73525654296875L6.931968203125,12.75205654296875C7.223188203125,13.06745654296875,7.635548203125,13.24305654296875,8.064768203125,13.23445654296875C8.493568203125001,13.22645654296875,8.899168203125,13.03445654296875,9.177568203125,12.70965654296875L13.537558203125,7.61845654296875C14.024758203125,7.04965654296875,14.015958203125,6.19845654296875,13.517558203125,5.63925654296875L11.298358203125,3.15285654296875C11.013058203125,2.83338654296875,10.605098203125,2.65065654296875,10.176768203125,2.65045654296875L5.785568203125,2.65045654296875Z" fill="#333333" fill-opacity="1"/></g><g><path d="M8.0814406640625,11.21679515625C7.800640664062501,11.21679515625,7.5310406640625,11.09919515625,7.3398406640625,10.89279515625L4.8966366640625,8.25119115625C4.6864213640625,8.02422015625,4.7004012640625,7.66970515625,4.9278366640625,7.45999115625C5.1548076640625,7.24977585625,5.5093236640625,7.26375575625,5.7190366640625,7.49119115625L8.0782406640625,10.04159515625L10.1814406640625,7.5855911562500005C10.3822406640625,7.35039095625,10.7358406640625,7.32319065625,10.9710406640625,7.52479115625C11.2062406640625,7.72559115625,11.233440664062499,8.07919115625,11.0318406640625,8.31439515625L8.847840664062499,10.86398515625C8.660100664062501,11.08271515625,8.3880206640625,11.21103515625,8.0998406640625,11.21679515625L8.0814406640625,11.21679515625Z" fill="#3A78FE" fill-opacity="1"/></g></g></svg>