<svg xmlns="http://www.w3.org/2000/svg" xmlns:xlink="http://www.w3.org/1999/xlink" fill="none" version="1.1" width="21" height="20" viewBox="0 0 21 20"><defs><clipPath id="master_svg0_287_5923"><rect x="0" y="0" width="21" height="20" rx="0"/></clipPath></defs><g clip-path="url(#master_svg0_287_5923)"><g><path d="M4.73669734375,4.94998623046875C4.98014734375,4.88813623046875,5.16837734375,4.70255623046875,5.23111734375,4.46255623046875C5.29386734375,4.22254623046875,5.21857734375,3.9701762304687502,5.03535734375,3.80192623046875L4.06658734375,2.84684623046875C3.89592734375,2.66622623046875,3.63741734375,2.59199623046875,3.39648734375,2.65385623046875C3.15303734375,2.71570623046875,2.96480734375,2.90128623046875,2.90205734375,3.14128623046875C2.83931734375,3.38129623046875,2.91460734375,3.63366623046875,3.09781734375,3.80192623046875L4.06658734375,4.75699623046875C4.2372573437500005,4.93761623046875,4.49324734375,5.01184623046875,4.73669734375,4.94998623046875ZM18.05597734375,2.84932623046875C17.78747734375,2.58457623046875,17.35327734375,2.58457623046875,17.08727734375,2.84932623046875L16.11847734375,3.8043962304687504C15.93527734375,3.97264623046875,15.85997734375,4.22749623046875,15.92267734375,4.46502623046875C15.98547734375,4.70503623046875,16.17367734375,4.89060623046875,16.41717734375,4.95246623046875C16.66057734375,5.01431623046875,16.91657734375,4.94009623046875,17.08727734375,4.75946623046875L18.05597734375,3.8043962304687504C18.32207734375,3.54211623046875,18.32207734375,3.11406623046875,18.05597734375,2.84932623046875ZM2.35241734375,8.19624623046875L0.98208934375,8.19872623046875C0.72860334375,8.18387623046875,0.48766634375,8.31006623046875,0.35715814375,8.52532623046875C0.22665044374999999,8.74058623046875,0.22665044374999999,9.00781623046875,0.35715814375,9.22307623046875C0.48766634375,9.43833623046875,0.72860334375,9.56205623046875,0.98208934375,9.54968623046875L2.35241734375,9.54968623046875C2.73139734375,9.54968623046875,3.03758734375,9.24781623046875,3.03758734375,8.87420623046875C3.03758734375,8.49811623046875,2.73139734375,8.19624623046875,2.35241734375,8.19624623046875ZM20.16927734375,8.19624623046875L18.79887734375,8.19872623046875C18.54537734375,8.18387623046875,18.30447734375,8.31006623046875,18.17147734375,8.52532623046875C18.04097734375,8.74058623046875,18.04097734375,9.00781623046875,18.17147734375,9.22307623046875C18.30197734375,9.43833623046875,18.54287734375,9.56205623046875,18.79887734375,9.54968623046875L20.16927734375,9.54968623046875C20.54817734375,9.54968623046875,20.85437734375,9.24781623046875,20.85437734375,8.87420623046875C20.85437734375,8.49811623046875,20.54817734375,8.19624623046875,20.16927734375,8.19624623046875ZM10.23307734375,2.36188623046875C10.44387734375,2.48312623046875,10.70747734375,2.48312623046875,10.91827734375,2.36188623046875C11.12907734375,2.24064623046875,11.26207734375,2.01796623046875,11.26207734375,1.77795623046875L11.26207734375,0.42699723046875004C11.26207734375,0.18451723046875002,11.13157734375,-0.038167769531250006,10.91827734375,-0.15693386953125C10.70737734375,-0.27817376953125,10.44387734375,-0.27817376953125,10.23307734375,-0.15693386953125C10.02226734375,-0.03569376953125,9.88924734375,0.18699123046875,9.89175734375,0.42699723046875004L9.89175734375,1.77795623046875C9.88924734375,2.02043623046875,10.01974734375,2.24312623046875,10.23307734375,2.36188623046875ZM10.57687734375,3.8043962304687504C7.17116734375,3.8043962304687504,4.40791734375,6.52610623046875,4.40791734375,9.88613623046875C4.40791734375,13.24623623046875,7.16865734375,15.96553623046875,10.57687734375,15.96553623046875C13.98517734375,15.96553623046875,16.74587734375,13.24383623046875,16.74587734375,9.88613623046875C16.74587734375,6.52858623046875,13.98267734375,3.8043962304687504,10.57687734375,3.8043962304687504ZM12.49187734375,12.28133623046875L11.44027734375,12.28133623046875L10.68237734375,9.42596623046875C10.64217734375,9.27008623046875,10.61707734375,9.10925623046875,10.60957734375,8.94348623046875L10.59947734375,8.94348623046875C10.57947734375,9.13895623046875,10.55437734375,9.29977623046875,10.51917734375,9.42596623046875L9.74367734375,12.28133623046875L8.65192734375,12.28133623046875L7.46731734375,7.90180623046875L8.50636734375,7.90180623046875L9.16643734375,10.87093623046875C9.19403734375,11.00213623046875,9.21411734375,11.16543623046875,9.22666734375,11.36333623046875L9.24674734375,11.36333623046875C9.25678734375,11.20743623046875,9.28689734375,11.03923623046875,9.33458734375,10.85613623046875L10.16029734375,7.90180623046875L11.16667734375,7.90180623046875L11.91717734375,10.89323623046875C11.94727734375,11.01193623046875,11.97237734375,11.16543623046875,11.98987734375,11.35593623046875L12.00497734375,11.35593623046875C12.01247734375,11.19263623046875,12.03507734375,11.03173623046875,12.07027734375,10.87593623046875L12.71527734375,7.90180623046875L13.67647734375,7.90180623046875L12.49187734375,12.28133623046875ZM9.20407734375,19.34533623046875Q9.20407734375,19.34293623046875,9.20407734375,19.34533623046875ZM11.26207734375,18.66993623046875L9.89175734375,18.66993623046875C9.71104734375,18.66993623046875,9.53536734375,18.74163623046875,9.40736734375,18.86783623046875C9.27936734375,18.99403623046875,9.20658734375,19.16473623046875,9.20658734375,19.34533623046875C9.20658734375,19.52353623046875,9.27936734375,19.69673623046875,9.40736734375,19.82293623046875C9.53536734375,19.94913623046875,9.71104734375,20.02083623046875,9.89175734375,20.02083623046875L11.26207734375,20.02083623046875C11.51557734375,20.03573623046875,11.75647734375,19.90953623046875,11.88697734375,19.69423623046875C12.01747734375,19.47893623046875,12.01747734375,19.21173623046875,11.88697734375,18.99653623046875C11.75647734375,18.78123623046875,11.51557734375,18.65503623046875,11.26207734375,18.66993623046875ZM12.63237734375,16.64343623046875L8.51891734375,16.64343623046875C8.33820734375,16.64343623046875,8.16252734375,16.71523623046875,8.03452734375,16.84143623046875C7.90652734375,16.96763623046875,7.83374734375,17.13833623046875,7.83374734375,17.31893623046875C7.83374734375,17.49703623046875,7.90652734375,17.67023623046875,8.03452734375,17.79643623046875C8.16252734375,17.92263623046875,8.33820734375,17.99443623046875,8.51891734375,17.99443623046875L12.62987734375,17.99443623046875C13.00887734375,17.99443623046875,13.31507734375,17.69253623046875,13.31507734375,17.31893623046875C13.31757734375,16.94533623046875,13.00887734375,16.64343623046875,12.63237734375,16.64343623046875ZM7.83374734375,17.31893623046875C7.83374734375,17.31643623046875,7.83374734375,17.31643623046875,7.83374734375,17.31893623046875Z" fill="#FF9514" fill-opacity="1"/></g></g></svg>