<svg xmlns="http://www.w3.org/2000/svg" xmlns:xlink="http://www.w3.org/1999/xlink" fill="none" version="1.1" width="15" height="15" viewBox="0 0 15 15"><defs><clipPath id="master_svg0_287_6814"><rect x="0" y="0" width="15" height="15" rx="0"/></clipPath></defs><g clip-path="url(#master_svg0_287_6814)"><g><path d="M6.612671875,7.833742421875L1.787475875,5.396242421875C1.255736875,5.128172421875,1.255736875,4.369382421875001,1.787475875,4.101322421875L6.618531875,1.659425421875C7.200071875,1.364991621875,7.885621875,1.364991621875,8.468631875,1.656495421875L13.161971875,4.011962421874999C13.749371875,4.306402421875,13.752271875,5.144292421875,13.166371875,5.443112421875L8.471561874999999,7.830812421875C7.887081875,8.128172421875,7.197141875,8.128172421875,6.612671875,7.833742421875Z" fill="#FFFFFF" fill-opacity="1"/></g><g><path d="M7.5276775,10.787214375C7.0530675,10.787214375,6.5784575,10.680274375,6.1448675,10.467874375000001L1.7708415,8.317484375C1.4412513,8.154884375,1.3050208,7.756448375,1.4661537,7.425393375C1.6287515,7.094338975,2.0286535,6.959573675,2.3582435,7.120706475L6.7322675,9.272564375C7.2347075,9.518654375,7.8323675,9.517194374999999,8.331877500000001,9.268164375L12.6297375,7.125101275C12.9593375,6.961038575,13.3592375,7.094339475,13.5232375,7.423929375C13.6873375,7.753519375,13.5540375,8.153424375,13.2244375,8.317484375L8.928067500000001,10.459084375C8.4900775,10.677344375,8.009607500000001,10.787214375,7.5276775,10.787214375Z" fill="#FFFFFF" fill-opacity="1"/></g><g><path d="M7.5276775,13.580655546875C7.0530675,13.580655546875,6.5784575,13.473725546875,6.1448675,13.261315546875L1.7708415,11.110925546875C1.4412513,10.948335546875,1.3050208,10.549894546875,1.4661537,10.218838546875C1.6287515,9.889248946875,2.0286535,9.753018646875,2.3582435,9.914151446875L6.7322675,12.064545546875C7.2332475,12.310635546875,7.8323675,12.309175546875,8.331877500000001,12.060145546874999L12.6297375,9.917081346875C12.9593375,9.753018646875,13.3592375,9.886320046875,13.5232375,10.215909546875C13.6873375,10.545499546875,13.5540375,10.945405546875,13.2244375,11.109465546875L8.928067500000001,13.252535546875C8.4900775,13.470795546875,8.009607500000001,13.580655546875,7.5276775,13.580655546875Z" fill="#FFFFFF" fill-opacity="1"/></g></g></svg>