<svg xmlns="http://www.w3.org/2000/svg" xmlns:xlink="http://www.w3.org/1999/xlink" fill="none" version="1.1" width="18" height="17" viewBox="0 0 18 17"><defs><clipPath id="master_svg0_267_5889"><rect x="0" y="0" width="18" height="17" rx="0"/></clipPath></defs><g clip-path="url(#master_svg0_267_5889)"><g><path d="M8.4430978125,14.0511271875C8.4018878125,13.9445271875,8.4289278125,10.6472271875,8.4289278125,10.2356871875C8.4289278125,9.8365371875,8.4160478125,6.4859571875,8.4430978125,6.4053771875L9.6589678125,6.4053771875C9.7001778125,6.5119771875,9.6731478125,8.0676471875,9.6731478125,8.3205371875C9.6731478125,9.1051871875,9.6873178125,13.9717971875,9.6589678125,14.0511271875L8.4430978125,14.0511271875ZM10.889007812500001,6.4053971875L12.1048778125,6.4190371875L12.1048778125,14.0511471875L10.889007812500001,14.0375071875L10.889007812500001,6.4053971875ZM5.9984878125000005,6.4053971875L7.2143578125,6.4190371875L7.2143578125,14.0511471875L5.9984878125000005,14.0375071875L5.9984878125000005,6.4053971875ZM5.8181578125,15.8063671875L12.2697578125,15.8063671875C12.3251378125,15.7803671875,12.5466778125,15.7530671875,12.6432678125,15.7270671875C13.1816078125,15.5671671875,13.6106078125,15.1816671875,13.8179078125,14.6758671875C13.9287078125,14.3969771875,13.9145078125,14.2370671875,13.9416078125,13.9321271875L14.9501078125,6.1934071875C15.0196078125,5.6752671875,15.1021078125,5.1695161875,15.1574078125,4.6513671875L2.9588001375,4.651367694139C2.9446257125,4.7443284875,3.1249538125,6.0074771875,3.1520068125,6.2070371875L3.7457668125,10.8331571875C3.8835898125,11.8706971875,4.0085178125,12.9082171875,4.1463378125000006,13.9445071875C4.2017178125,14.2370471875,4.1746678125,14.3969671875,4.2854378125,14.6758671875C4.4915278125,15.1815671875,4.9204278125,15.5671671875,5.4587978125,15.7270671875C5.5425278124999995,15.7530671875,5.7769478125,15.7803671875,5.8181578125,15.8063671875Z" fill="#4C84FC" fill-opacity="1"/></g><g><path d="M2.336669921875,3.0820272656250003L2.336669921875,4.066257265625L15.765369921875,4.066257265625L15.765369921875,3.0820272656250003C15.738269921875,3.015097265625,15.724169921875,2.9084872656250003,15.682869921875,2.815517265625C15.572169921875,2.589907265625,15.378969921875,2.403967265625,15.102069921875,2.337027265625C14.853469921875,2.271337265625,14.052269921875,2.2973672656249997,13.734169921875,2.2973672656249997C13.251169921875,2.2973672656249997,12.781069921875,2.2973672656249997,12.298049921875,2.2973672656249997C11.842089921875,2.2973672656249997,11.330749921875,2.323387265625,10.874809921875,2.2973672656249997C10.833599921875,2.044490265625,10.667449921875,1.579651265625,10.529629921875,1.3528042656250001C10.433029921875,1.194131965625,10.433029921875,1.220175265625,10.322259921875,1.127197265625L7.793919921875,1.127197645605C7.724359921875,1.166865765625,7.711479921875,1.166865765625,7.656099921875,1.220158665625C7.462889921875,1.419739265625,7.268399921875,2.044474265625,7.227189921875,2.2973672656249997C6.771239921875,2.323387265625,6.247019921875,2.2973672656249997,5.791069921875,2.2973672656249997C5.320949921875,2.2973672656249997,4.8379499218749995,2.2973672656249997,4.367829921875,2.2973672656249997C4.049699921875,2.2973672656249997,3.248561921875,2.271337265625,2.985813921875,2.337037265625C2.792606921875,2.390337265625,2.654801921875,2.510567265625,2.558189921875,2.615937265625C2.377879921875,2.803107265625,2.377879921875,2.989047265625,2.336669921875,3.0820272656250003Z" fill="#4C84FC" fill-opacity="1"/></g></g></svg>