<svg xmlns="http://www.w3.org/2000/svg" xmlns:xlink="http://www.w3.org/1999/xlink" fill="none" version="1.1" width="17" height="17" viewBox="0 0 17 17"><defs><clipPath id="master_svg0_267_5999"><rect x="0" y="0" width="17" height="17" rx="0"/></clipPath></defs><g clip-path="url(#master_svg0_267_5999)"><g><path d="M8.500004687499999,1.1123046875C12.5801046875,1.1123046875,15.8877046875,4.4198846875,15.8877046875,8.500004687499999C15.8877046875,12.5801046875,12.5801046875,15.8877046875,8.500004687499999,15.8877046875C7.3904546875,15.8877046875,6.3156446875,15.6425046875,5.3373046875,15.1783046875C5.2986246875,15.1599046875,5.2471546875,15.1346046875,5.1828746875,15.1022046875C5.1190346875,15.0701046875,5.0449246875,15.0650046875,4.9773146875,15.0882046875L3.4957546875,15.5961046875C2.9589446875,15.7801046875,2.3745846875,15.4941046875,2.1905446875,14.9573046875C2.1378646875,14.8036046875,2.1223746875,14.6396046875,2.1453546875000002,14.4788046875L2.3887846875000003,12.7746046875C2.3980346875,12.7098046875,2.3830246875,12.6438046875,2.3466146875,12.5894046875C2.3331046875,12.5692046875,2.3197146875000003,12.5490046875,2.3064346875,12.5286046875C1.5327226875,11.3417046875,1.1123046875,9.9519846875,1.1123046875,8.500004687499999C1.1123046875,4.4198846875,4.4198846875,1.1123046875,8.500004687499999,1.1123046875ZM7.1718746875,9.1142546875L5.7109346875,9.1142546875C5.3808646875,9.1142546875,5.1132846875,9.3818446875,5.1132846875,9.7119146875C5.1132846875,10.0419846875,5.3808646875,10.3095746875,5.7109346875,10.3095746875L7.1718746875,10.3095746875C7.5019446875,10.3095746875,7.7695346875,10.0419846875,7.7695346875,9.7119146875C7.7695346875,9.3818446875,7.5019446875,9.1142546875,7.1718746875,9.1142546875ZM8.6328146875,6.5908246875L5.7109346875,6.5908246875C5.3808646875,6.5908246875,5.1132846875,6.8584046875,5.1132846875,7.1884746875C5.1132846875,7.5185446875,5.3808646875,7.7861346875,5.7109346875,7.7861346875L8.6328146875,7.7861346875C8.9628846875,7.7861346875,9.2304646875,7.5185446875,9.2304646875,7.1884746875C9.2304646875,6.8584046875,8.9628846875,6.5908246875,8.6328146875,6.5908246875Z" fill="#1577E6" fill-opacity="1"/></g></g></svg>