<svg xmlns="http://www.w3.org/2000/svg" xmlns:xlink="http://www.w3.org/1999/xlink" fill="none" version="1.1" width="16.071428298950195" height="15" viewBox="0 0 16.071428298950195 15"><defs><clipPath id="master_svg0_168_01335"><rect x="0" y="0" width="16.071428298950195" height="15" rx="0"/></clipPath></defs><g clip-path="url(#master_svg0_168_01335)"><g><path d="M13.6847755859375,14.4600048828125L2.3464055859375,14.4600048828125C1.4865825859375001,14.4600048828125,0.7874755859375,13.8075048828125,0.7874755859375,13.0050048828125L0.7874755859375,5.5800048828125C0.7874755859375,5.3325048828125,1.0044395859375,5.1300048828125,1.2696185859375,5.1300048828125C1.5347965859375,5.1300048828125,1.7517615859375,5.3325048828125,1.7517615859375,5.5800048828125L1.7517615859375,13.0050048828125C1.7517615859375,13.3087548828125,2.0169355859375,13.5600048828125,2.3464055859375,13.5600048828125L13.6847755859375,13.5600048828125C14.0102755859375,13.5600048828125,14.2794755859375,13.3125048828125,14.2794755859375,13.0050048828125L14.2794755859375,5.5800048828125C14.2794755859375,5.3325048828125,14.4963755859375,5.1300048828125,14.7615755859375,5.1300048828125C15.0267755859375,5.1300048828125,15.2436755859375,5.3325048828125,15.2436755859375,5.5800048828125L15.2436755859375,13.0050048828125C15.2436755859375,13.8075048828125,14.5445755859375,14.4600048828125,13.6847755859375,14.4600048828125Z" fill="#4C84FC" fill-opacity="1"/></g><g><path d="M7.88699765625,10.51873369140625C7.78654765625,10.51873369140625,7.68609765625,10.48873369140625,7.60172765625,10.43248369140625L0.98431465625,5.89873569140625C0.77136805625,5.75248469140625,0.72315385625,5.47123569140625,0.87985025625,5.26873569140625C1.03654665625,5.06998539140625,1.33788565625,5.02498509140625,1.55485065625,5.17123519140625L7.89100765625,9.51373369140625L14.44409765625,5.16748499140625C14.66109765625,5.02498509140625,14.96239765625,5.06998499140625,15.11509765625,5.27248469140625C15.26779765625,5.47498469140625,15.21959765625,5.75623469140625,15.00259765625,5.89873569140625L8.16824765625,10.436233691406251C8.08386765625,10.49248369140625,7.98743765625,10.51873369140625,7.88699765625,10.51873369140625Z" fill="#4C84FC" fill-opacity="1"/></g><g><path d="M13.2751404296875,6.83626220703125C13.0099404296875,6.83626220703125,12.7929404296875,6.63376220703125,12.7929404296875,6.38626220703125L12.7929404296875,1.98751220703125C12.7929404296875,1.74001220703125,12.5760404296875,1.53751220703125,12.3108404296875,1.53751220703125L3.5478704296875003,1.53751220703125C3.2826904296875,1.53751220703125,3.0657264296875,1.74001220703125,3.0657264296875,1.98751220703125L3.0657264296875,6.38251220703125C3.0657264296875,6.63001220703125,2.8487614296875,6.83251220703125,2.5835834296874998,6.83251220703125C2.3184044296875,6.83251220703125,2.1014404296875,6.63001220703125,2.1014404296875,6.38251220703125L2.1014404296875,1.98751220703125C2.1014404296875,1.24126220703125,2.7483154296875,0.63751220703125,3.5478704296875003,0.63751220703125L12.3108404296875,0.63751220703125C13.1103404296875,0.63751220703125,13.7572404296875,1.24126220703125,13.7572404296875,1.98751220703125L13.7572404296875,6.38251220703125C13.7572404296875,6.63376220703125,13.5402404296875,6.83626220703125,13.2751404296875,6.83626220703125Z" fill="#4C84FC" fill-opacity="1"/></g><g><path d="M11.19783546875,3.941259765625L4.82149846875,3.941259765625C4.55631946875,3.941259765625,4.33935546875,3.738759765625,4.33935546875,3.491259765625C4.33935546875,3.243759765625,4.55631946875,3.041259765625,4.82149846875,3.041259765625L11.19783546875,3.041259765625C11.463015468750001,3.041259765625,11.679975468750001,3.243759765625,11.679975468750001,3.491259765625C11.679975468750001,3.738759765625,11.463015468750001,3.941259765625,11.19783546875,3.941259765625ZM9.20899546875,6.1950097656250005L4.82149846875,6.1950097656250005C4.55631946875,6.1950097656250005,4.33935546875,5.992509765625,4.33935546875,5.745009765624999C4.33935546875,5.497509765625,4.55631946875,5.295009765625,4.82149846875,5.295009765625L9.20497546875,5.295009765625C9.47015546875,5.295009765625,9.68712546875,5.497509765625,9.68712546875,5.745009765624999C9.68712546875,5.992509765625,9.474175468750001,6.1950097656250005,9.20899546875,6.1950097656250005Z" fill="#4C84FC" fill-opacity="1"/></g></g></svg>