<svg xmlns="http://www.w3.org/2000/svg" xmlns:xlink="http://www.w3.org/1999/xlink" fill="none" version="1.1" width="17" height="17" viewBox="0 0 17 17"><defs><clipPath id="master_svg0_267_5768"><rect x="17" y="0" width="17" height="17" rx="0"/></clipPath></defs><g transform="matrix(-1,0,0,1,34,0)" clip-path="url(#master_svg0_267_5768)"><g><path d="M30.8125,4.25L26.5625,4.25L26.5625,2.125C26.5625,1.540625,26.08438,1.0625,25.5,1.0625C24.91563,1.0625,24.4375,1.540625,24.4375,2.125L24.4375,4.25L20.1875,4.25C19.01875,4.25,18.0625,5.20625,18.0625,6.375L18.0625,7.96875C18.0625,8.55313,18.540625,9.03125,19.125,9.03125L19.59906,9.03125L18.623185,14.6282C18.60368,14.709,18.5938,14.7919,18.59375,14.875C18.59375,14.9626,18.60469,15.0477,18.624928,15.1293L18.625144,15.1302C18.627866,15.1411,18.630855,15.1519,18.633909,15.1627C18.636167,15.1708,18.638408,15.179,18.640865,15.187C18.641861,15.1902,18.64294,15.1934,18.64397,15.1966C18.760728,15.5678,19.07745,15.8627,19.48577,15.9296C19.57893,15.9449,19.67372,15.9475,19.7676,15.9375L21.64455,15.9375L21.98271,13.2277C22.01888,12.9378,22.28572,12.7302,22.57565,12.7664C22.8656,12.8025,23.07322,13.0694,23.03703,13.3593L22.71527,15.9375L31.2408,15.9375C31.334699999999998,15.9475,31.4295,15.9449,31.5226,15.9296C32.0993,15.8351,32.4938,15.286,32.3993,14.7093L31.409399999999998,9.03125L31.875,9.03125C32.4594,9.03125,32.9375,8.55313,32.9375,7.96875L32.9375,6.375C32.9375,5.20625,31.981299999999997,4.25,30.8125,4.25ZM19.65625,6.375C19.65625,6.08281,19.89531,5.84375,20.1875,5.84375L30.8125,5.84375C31.1047,5.84375,31.3437,6.08281,31.3437,6.375L31.3437,7.4375L19.65625,7.4375L19.65625,6.375Z" fill="#4C84FC" fill-opacity="1"/></g></g></svg>