<svg id="容器-2" data-name="容器" xmlns="http://www.w3.org/2000/svg" xmlns:xlink="http://www.w3.org/1999/xlink" width="20" height="20" viewBox="0 0 20 20">
  <defs>
    <clipPath id="clip-path">
      <rect id="容器" width="20" height="20" fill="none"/>
    </clipPath>
  </defs>
  <rect id="容器-3" data-name="容器" width="20" height="20" fill="none"/>
  <g id="容器-4" data-name="容器" clip-path="url(#clip-path)">
    <path id="路径" d="M0,0,14.547,8.313a.588.588,0,0,1-.291,1.1H2.215A1.176,1.176,0,0,1,1.048,8.381Z" transform="translate(1.176 7.059)" fill="#f5c164"/>
    <path id="路径-2" data-name="路径" d="M14.844,0,13.8,8.381a1.176,1.176,0,0,1-1.168,1.031H.589A.588.588,0,0,1,.3,8.313Z" transform="translate(3.98 7.059)" fill="#f5c164"/>
    <path id="路径-3" data-name="路径" d="M6.656,0l6.466,9.947a1.176,1.176,0,0,1-.986,1.818H1.177A1.176,1.176,0,0,1,.19,9.947Z" transform="translate(3.344 4.706)" fill="#ffe09e"/>
    <path id="路径-4" data-name="路径" d="M0,0,6.466,9.947a1.176,1.176,0,0,1-.986,1.818H0Z" transform="translate(10 4.706)" fill="#f9cf7e"/>
    <path id="路径-5" data-name="路径" d="M0,1.176A1.176,1.176,0,1,0,1.176,0,1.176,1.176,0,0,0,0,1.176Z" transform="translate(8.824 2.941)" fill="#ffe19f"/>
    <path id="路径-6" data-name="路径" d="M0,1.176A1.176,1.176,0,1,0,1.176,0,1.176,1.176,0,0,0,0,1.176Z" transform="translate(17.647 5.294)" fill="#ffe19f"/>
    <path id="路径-7" data-name="路径" d="M0,1.176A1.176,1.176,0,1,0,1.176,0,1.176,1.176,0,0,0,0,1.176Z" transform="translate(0 5.294)" fill="#ffe19f"/>
  </g>
</svg>
