<svg xmlns="http://www.w3.org/2000/svg" xmlns:xlink="http://www.w3.org/1999/xlink" fill="none" version="1.1" width="46" height="46" viewBox="0 0 46 46"><defs><clipPath id="master_svg0_252_6013"><rect x="0" y="0" width="46" height="46" rx="0"/></clipPath><linearGradient x1="0.5" y1="0.5" x2="0.5" y2="1" id="master_svg1_168_5252"><stop offset="0.4999999888241291%" stop-color="#C6E6FF" stop-opacity="1"/><stop offset="96.8999981880188%" stop-color="#7DBEFF" stop-opacity="1"/></linearGradient></defs><g clip-path="url(#master_svg0_252_6013)"><g><g><ellipse cx="23" cy="23" rx="23" ry="23" fill="url(#master_svg1_168_5252)" fill-opacity="1"/></g><g><g><path d="M31.8,32L14.2,32C12.990032,32,12.0071498,31.0229,12,29.813000000000002L12.01,19.005L22.736,24.823C22.900399999999998,24.91209,23.098599999999998,24.91209,23.262999999999998,24.823L34,19L34,29.813000000000002C33.9929,31.0229,33.010000000000005,32,31.8,32Z" fill="#FFFFFF" fill-opacity="1"/></g><g><path d="M12,16.119C12.0267657,14.932220000000001,13.00298,13.9876522,14.19,14L31.8,14C32.9865,13.9874882,33.9647,14.926989,34,16.113L23,22.086L12,16.119Z" fill="#FFFFFF" fill-opacity="1"/></g></g></g></g></svg>