<svg xmlns="http://www.w3.org/2000/svg" xmlns:xlink="http://www.w3.org/1999/xlink" fill="none" version="1.1" width="46" height="46" viewBox="0 0 46 46"><defs><clipPath id="master_svg0_252_5885"><rect x="0" y="0" width="46" height="46" rx="0"/></clipPath><linearGradient x1="0.5" y1="0.5" x2="0.5" y2="1" id="master_svg1_168_5468"><stop offset="0%" stop-color="#C6FF97" stop-opacity="1"/><stop offset="100%" stop-color="#7FDE50" stop-opacity="1"/></linearGradient></defs><g clip-path="url(#master_svg0_252_5885)"><g><g><ellipse cx="23" cy="23" rx="23" ry="23" fill="url(#master_svg1_168_5468)" fill-opacity="1"/></g><g><g><path d="M13,31L9,31L9,25C8.999589848,19.337220000000002,12.41058,14.23184,17.64229,12.06473C22.874000000000002,9.89762,28.896,11.0955997,32.9,15.1C35.534,17.72,37.0103,21.2849,37,25L37,31L33,31L33,25C33,19.47715,28.5228,15,23,15C17.47715,15,13,19.47715,13,25L13,31Z" fill="#FFFFFF" fill-opacity="1"/></g><g><rect x="9" y="28" width="9" height="6" rx="2" fill="#FFFFFF" fill-opacity="1"/></g><g><rect x="28" y="28" width="9" height="6" rx="2" fill="#FFFFFF" fill-opacity="1"/></g></g></g></g></svg>