<svg xmlns="http://www.w3.org/2000/svg" xmlns:xlink="http://www.w3.org/1999/xlink" fill="none" version="1.1" width="46" height="46" viewBox="0 0 46 46"><defs><clipPath id="master_svg0_252_5842"><rect x="0" y="0" width="46" height="46" rx="0"/></clipPath><linearGradient x1="0.5" y1="0.5" x2="0.5" y2="1" id="master_svg1_168_5404"><stop offset="4.285714402794838%" stop-color="#FFD7BE" stop-opacity="1"/><stop offset="100%" stop-color="#FA9769" stop-opacity="1"/></linearGradient><clipPath id="master_svg2_252_5845"><rect x="13" y="13" width="21" height="21" rx="0"/></clipPath></defs><g clip-path="url(#master_svg0_252_5842)"><g><g><ellipse cx="23" cy="23" rx="23" ry="23" fill="url(#master_svg1_168_5404)" fill-opacity="1"/></g></g><g clip-path="url(#master_svg2_252_5845)"><g><path d="M30.5,13C31.9497,13,33.125,14.17525,33.125,15.625L33.125,31.375C33.125,32.8247,31.9497,34,30.5,34L16.5,34C15.05025,34,13.875,32.8247,13.875,31.375L13.875,15.625C13.874999843538,14.17525,15.05025,13,16.5,13L30.5,13ZM26.125,27.875L19.125,27.875C18.641750000000002,27.875,18.25,28.2668,18.25,28.75C18.25,29.2332,18.641750000000002,29.625,19.125,29.625L26.125,29.625C26.6082,29.625,27,29.2332,27,28.75C27,28.2668,26.6082,27.875,26.125,27.875ZM26.125,24.375L19.125,24.375C18.64208,24.375500000000002,18.25085,24.7671,18.25085,25.25C18.25085,25.7329,18.64208,26.124499999999998,19.125,26.125L26.125,26.125C26.6079,26.124499999999998,26.9991,25.7329,26.9991,25.25C26.9991,24.7671,26.6079,24.375500000000002,26.125,24.375ZM23.5,15.625L19.125,15.625C18.641750000000002,15.625,18.25,16.016750000000002,18.25,16.5L18.25,21.022C18.24989,21.34199,18.42447,21.63652,18.70524,21.79003C18.986,21.94354,19.32817,21.93155,19.5975,21.75875L20.84,20.96075C21.12792,20.77602,21.49708,20.77602,21.785,20.96075L23.0275,21.75875C23.29683,21.93155,23.639,21.94354,23.919800000000002,21.79003C24.200499999999998,21.63652,24.3751,21.34199,24.375,21.022L24.375,16.5C24.375,16.016750000000002,23.9832,15.625,23.5,15.625Z" fill="#FFFFFF" fill-opacity="1"/></g></g></g></svg>