<svg xmlns="http://www.w3.org/2000/svg" xmlns:xlink="http://www.w3.org/1999/xlink" fill="none" version="1.1" width="46" height="46" viewBox="0 0 46 46"><defs><clipPath id="master_svg0_252_5996"><rect x="0" y="0" width="46" height="46" rx="0"/></clipPath><linearGradient x1="0.5" y1="0.5" x2="0.5" y2="1" id="master_svg1_168_5509"><stop offset="0%" stop-color="#C6D5FF" stop-opacity="1"/><stop offset="100%" stop-color="#5E90F6" stop-opacity="1"/></linearGradient><clipPath id="master_svg2_252_5999"><rect x="10" y="11" width="26" height="25" rx="0"/></clipPath></defs><g clip-path="url(#master_svg0_252_5996)"><g><g><ellipse cx="23" cy="23" rx="23" ry="23" fill="url(#master_svg1_168_5509)" fill-opacity="1"/></g></g><g clip-path="url(#master_svg2_252_5999)"><g><path d="M23,35.21875C16.26925,35.21875,10.8125,29.97185,10.8125,23.50005C10.8125,17.02813,16.26925,11.78125,23,11.78125C29.7308,11.78125,35.1875,17.02813,35.1875,23.50005C35.1875,29.97185,29.7308,35.21875,23,35.21875ZM21.5001,22.71875L21.5001,28.48825C21.5001,29.21835,22.1156,29.81015,22.8749,29.81015C23.6341,29.81015,24.2496,29.21835,24.2496,28.48825L24.2496,22.71875C24.2496,21.98865,23.6341,21.39687,22.8749,21.39687C22.1156,21.39687,21.5001,21.98865,21.5001,22.71875ZM22.865099999999998,17.18984C22.4914,17.18984,22.1737,17.30078,21.9113,17.55937C21.6309,17.8,21.5001,18.114060000000002,21.5001,18.50313C21.5001,18.87266,21.6309,19.18672,21.9113,19.446089999999998C22.1737,19.70469,22.4914,19.83437,22.8659,19.83437C23.233,19.83491,23.5868,19.70273,23.8572,19.46406C24.1188,19.20547,24.2496,18.89141,24.2496,18.50313C24.2496,18.11484,24.1196,17.8,23.8572,17.55937C23.595599999999997,17.301560000000002,23.2584,17.18984,22.8659,17.18984L22.865099999999998,17.18984Z" fill="#FFFFFF" fill-opacity="1"/></g></g></g></svg>