<svg xmlns="http://www.w3.org/2000/svg" xmlns:xlink="http://www.w3.org/1999/xlink" fill="none" version="1.1" width="46" height="46" viewBox="0 0 46 46"><defs><clipPath id="master_svg0_252_6050"><rect x="0" y="0" width="46" height="46" rx="0"/></clipPath><linearGradient x1="0.3540000021457672" y1="0.5" x2="0.734000027179718" y2="0.8889999985694885" id="master_svg1_168_5446"><stop offset="0%" stop-color="#B1FFF3" stop-opacity="1"/><stop offset="100%" stop-color="#2EE5BC" stop-opacity="1"/></linearGradient></defs><g clip-path="url(#master_svg0_252_6050)"><g><g><ellipse cx="23" cy="23" rx="23" ry="23" fill="url(#master_svg1_168_5446)" fill-opacity="1"/></g><g><path d="M29.6,32L16,32C13.79086,32,12,30.2091,12,28L12,18C12,15.79086,13.79086,14,16,14L29.6,14C31.8091,14,33.6,15.79086,33.6,18L33.6,28C33.6007,28.7562,33.386399999999995,29.497,32.982,30.136L25.244,22.4L27.683999999999997,19.961L20.683999999999997,19.961L20.683999999999997,26.961L23.124000000000002,24.522L30.5,31.9C30.2047,31.9671,29.9028,32.000699999999995,29.6,32Z" fill="#FFFFFF" fill-opacity="1"/></g></g></g></svg>