<svg xmlns="http://www.w3.org/2000/svg" xmlns:xlink="http://www.w3.org/1999/xlink" fill="none" version="1.1" width="46" height="46" viewBox="0 0 46 46"><defs><clipPath id="master_svg0_252_5831"><rect x="0" y="0" width="46" height="46" rx="0"/></clipPath><linearGradient x1="0.5" y1="0.5" x2="0.5" y2="1" id="master_svg1_168_5252"><stop offset="0.4999999888241291%" stop-color="#C6E6FF" stop-opacity="1"/><stop offset="96.8999981880188%" stop-color="#7DBEFF" stop-opacity="1"/></linearGradient><clipPath id="master_svg2_252_5832"><rect x="12" y="12" width="23" height="22" rx="0"/></clipPath></defs><g clip-path="url(#master_svg0_252_5831)"><g><g><ellipse cx="23" cy="23" rx="23" ry="23" fill="url(#master_svg1_168_5252)" fill-opacity="1"/></g></g><g clip-path="url(#master_svg2_252_5832)"><g><path d="M15.3036543359375,21.87499984375L15.2677443359375,21.75477984375L15.2318343359375,21.58303984375L15.2138843359375,21.49716984375L15.2138843359375,21.119339843749998L15.2497943359375,20.98194984375L15.285704335937499,20.810209843750002L15.3575143359375,20.655639843750002L15.4293343359375,20.483899843750002L15.537064335937501,20.277819843750002L15.6627443359375,20.10606984375L15.6627443359375,19.96867984375L15.6807043359375,19.83128984375L15.7166143359375,19.65954984375L15.7704743359375,19.48780984375L15.8243443359375,19.28171984375L15.8782043359375,19.17867984375L15.9141143359375,19.09280984375L15.9859343359375,18.98975984375L16.0577543359375,18.92105984375L16.0577543359375,18.457359843749998L16.1116143359375,18.216929843750002L16.1475243359375,17.92496984375L16.2193443359375,17.58148984375L16.3270743359375,17.23800984375L16.3988943359375,17.06626984375L16.470704335937498,16.84299984375L16.5604843359375,16.65408984375L16.6682143359375,16.44799984375L16.7579843359375,16.20755984375L16.8836643359375,16.00146984375L17.009354335937502,15.76103984375L17.1888943359375,15.53776984375L17.2607143359375,15.41755984375L17.3325343359375,15.29733984375L17.5120843359375,15.05689984375L17.6916343359375,14.81645984375L17.9250443359375,14.57602984375L18.1584543359375,14.33558984375L18.3918643359375,14.09514984375L18.6432243359375,13.85470984375L18.948454335937498,13.57992984375L19.1459643359375,13.42535984375L19.3793743359375,13.25361984375L19.6307343359375,13.09905984375L19.8821043359375,12.94448884375L20.1334743359375,12.82427084375L20.4207443359375,12.72122584375L20.7259743359375,12.58383384375L21.0132543359375,12.48078884375L21.318474335937502,12.39491884375L21.6416643359375,12.29187484375L21.9468943359375,12.22317784375L22.3059443359375,12.17165584375L22.5932443359375,12.12013384375L22.9523443359375,12.06861204375L23.2755443359375,12.03426394375L23.6346443359375,12.01708984375L24.693944335937502,12.01708984375L25.0530443359375,12.05143794375L25.412144335937498,12.10296014375L25.7712443359375,12.13730784375L26.0944443359375,12.20600484375L26.4535443359375,12.27470084375L26.794644335937498,12.36057084375L27.1537443359375,12.44644184375L27.4949443359375,12.56665984375L27.8180443359375,12.68687784375L28.1592443359375,12.82427084375L28.4644443359375,12.96166384375L28.7696443359375,13.13339984375L29.0569443359375,13.30513984375L29.3262443359375,13.47688984375L29.4340443359375,13.56275984375L29.5596443359375,13.63144984375L29.7931443359375,13.82036984375L30.0085443359375,14.00927984375L30.1881443359375,14.19819984375L30.4035443359375,14.40427984375L30.5471443359375,14.61036984375L30.7446443359375,14.81645984375L30.8883443359375,15.03971984375L31.0140443359375,15.24580984375L31.1576443359375,15.46907984375L31.2833443359375,15.67516984375L31.4628443359375,16.10451984375L31.5706443359375,16.32777984375L31.6424443359375,16.53386984375L31.7322443359375,16.75712984375L31.8040443359375,16.96321984375L31.8399443359375,17.13495984375L31.9117443359375,17.35821984375L32.0194443359375,17.73604984375L32.0913443359375,18.062359843750002L32.127244335937505,18.38866984375L32.1631443359375,18.64627984375L32.2349443359375,19.02410984375L32.2349443359375,19.09280984375L32.2888443359375,19.16149984375L32.432444335937504,19.36758984375L32.5042443359375,19.50497984375L32.5940443359375,19.64236984375L32.6838443359375,19.81411984375L32.7735443359375,19.98585984375L32.8274443359375,20.15759984375L32.8813443359375,20.380859843750002L32.9351443359375,20.58694984375L32.9351443359375,20.68998984375L32.9710443359375,20.827389843749998L32.9710443359375,20.930429843749998L32.953144335937495,21.033469843749998L32.953144335937495,21.170869843749998L32.9172443359375,21.30825984375L32.8454443359375,21.56586984375L32.7735443359375,21.70325984375L32.7197443359375,21.84064984375L32.7197443359375,21.87499984375L32.755644335937504,21.92651984375L32.8274443359375,22.02958984375L33.1326443359375,22.47608984375L33.3840443359375,22.80238984375L33.5097443359375,23.00848984375L33.653344335937504,23.24888984375L33.7970443359375,23.50648984375L33.976544335937504,23.798489843749998L34.120144335937496,24.10758984375L34.299744335937504,24.451089843749997L34.4074443359375,24.67438984375L34.497244335937495,24.897589843749998L34.569044335937505,25.12088984375L34.6588443359375,25.30978984375L34.7126443359375,25.53308984375L34.7845443359375,25.721989843750002L34.8563443359375,26.116989843749998L34.9102443359375,26.51198984375L34.9640443359375,26.85548984375L34.9640443359375,27.37068984375L34.9281443359375,27.54238984375L34.892244335937505,27.83438984375L34.8383443359375,28.10918984375L34.7486443359375,28.36678984375L34.7126443359375,28.46978984375L34.6588443359375,28.59008984375L34.6049443359375,28.67588984375L34.5331443359375,28.77898984375L34.4792443359375,28.84768984375L34.4074443359375,28.93348984375L34.3356443359375,29.00218984375L34.2638443359375,29.05378984375L34.174044335937495,29.08808984375L34.1022443359375,29.12248984375L34.0304443359375,29.13958984375L33.868844335937496,29.13958984375L33.7610443359375,29.07088984375L33.7072443359375,29.03658984375L33.653344335937504,29.00218984375L33.5815443359375,28.93348984375L33.527644335937495,28.88198984375L33.4199443359375,28.77898984375L33.2942443359375,28.60718984375L33.2045443359375,28.46978984375L33.0967443359375,28.33248984375L33.006944335937504,28.19508984375L32.8813443359375,27.93748984375L32.7197443359375,27.66268984375L32.6838443359375,27.66268984375L32.629944335937495,27.69698984375L32.5940443359375,27.76568984375L32.5222443359375,27.85158984375L32.432444335937504,28.10918984375L32.2708443359375,28.48698984375L32.0913443359375,28.93348984375L31.9117443359375,29.17398984375L31.7681443359375,29.39718984375L31.5885443359375,29.67198984375L31.4090443359375,29.92958984375L31.3012443359375,30.03268984375L31.1756443359375,30.17008984375L30.8883443359375,30.42768984375L30.9242443359375,30.44488984375L30.9601443359375,30.47918984375L31.0858443359375,30.56508984375L31.6783443359375,30.82268984375L31.9297443359375,30.96008984375L32.1631443359375,31.08028984375L32.4144443359375,31.25198984375L32.629944335937495,31.42378984375L32.7197443359375,31.49248984375L32.8094443359375,31.57838984375L32.8813443359375,31.68138984375L32.953144335937495,31.80158984375L32.9890443359375,31.88748984375L33.024944335937505,31.99048984375L33.0429443359375,32.093589843749996L33.0608443359375,32.196589843750004L33.0608443359375,32.35118984375L33.024944335937505,32.43708984375L32.9890443359375,32.50578984375L32.9710443359375,32.55728984375L32.9351443359375,32.62598984375L32.8274443359375,32.763389843750005L32.7197443359375,32.86638984375L32.6478443359375,32.952289843749995L32.5940443359375,33.00378984375L32.4144443359375,33.123989843749996L32.2349443359375,33.20988984375L32.055344335937505,33.29578984375L31.8399443359375,33.398789843749995L31.6065443359375,33.484689843750004L31.4808443359375,33.51898984375L31.3731443359375,33.53618984375L31.1037443359375,33.60488984375L30.8344443359375,33.65638984375L30.5471443359375,33.707889843749996L30.2599443359375,33.75948984375L29.9546443359375,33.75948984375L29.6315443359375,33.81098984375L28.6440443359375,33.81098984375L28.2849443359375,33.793789843750005L27.943744335937502,33.75948984375L27.5846443359375,33.707889843749996L27.2255443359375,33.67358984375L26.8664443359375,33.622089843750004L26.5073443359375,33.53618984375L26.1483443359375,33.484689843750004L25.7892443359375,33.38158984375L25.4301443359375,33.261389843749996L25.0710443359375,33.15838984375L24.8914443359375,33.10688984375L24.711944335937503,33.038189843750004L24.604144335937498,33.00378984375L24.4964443359375,32.98658984375L24.209144335937502,32.98658984375L23.8500443359375,32.96948984375L23.6885443359375,32.952289843749995L23.4730443359375,32.917889843750004L23.329444335937502,33.038189843750004L23.1319443359375,33.15838984375L22.8625443359375,33.27858984375L22.5753443359375,33.43318984375L22.3957443359375,33.51898984375L22.2162443359375,33.57058984375L21.803254335937503,33.74228984375L21.587794335937502,33.793789843750005L21.3543843359375,33.845289843749995L21.0132443359375,33.89688984375L20.833704335937497,33.91398984375L20.600294335937498,33.931189843750005L20.384834335937498,33.965589843749996L18.4636843359375,33.965589843749996L17.8711743359375,33.89688984375L17.5839043359375,33.86248984375L17.2966243359375,33.828189843749996L17.009354335937502,33.793789843750005L16.7400343359375,33.74228984375L16.470704335937498,33.65638984375L16.2193443359375,33.60488984375L15.9859343359375,33.51898984375L15.7704743359375,33.43318984375L15.5550243359375,33.347289843750005L15.3754743359375,33.24418984375L15.1959243359375,33.123989843749996L15.1420643359375,33.05528984375L15.070244335937499,32.98658984375L15.0163843359375,32.917889843750004L14.9625143359375,32.84918984375L14.9086543359375,32.780489843750004L14.872744335937501,32.71178984375L14.818874335937501,32.55728984375L14.8009243359375,32.47138984375L14.7650143359375,32.38548984375L14.7650143359375,32.31678984375L14.8009243359375,32.21378984375L14.8009243359375,31.85308984375L14.818874335937501,31.75008984375L14.872744335937501,31.64708984375L14.9086543359375,31.52678984375L14.980474335937501,31.40658984375L15.0343343359375,31.35508984375L15.070244335937499,31.28638984375L15.177974335937499,31.16618984375L15.2677443359375,31.09748984375L15.3575143359375,31.04598984375L15.4293343359375,30.99438984375L15.5550243359375,30.96008984375L15.644794335937501,30.90858984375L15.7704743359375,30.83988984375L15.9141143359375,30.80548984375L16.0397943359375,30.77118984375L16.2193443359375,30.73678984375L16.3629843359375,30.71968984375L16.5425243359375,30.68528984375L16.7220743359375,30.68528984375L16.7938943359375,30.66808984375L16.8298043359375,30.63378984375L16.7938943359375,30.56508984375L16.686164335937498,30.53068984375L16.4168443359375,30.30748984375L16.2373043359375,30.18728984375L16.0577543359375,30.01548984375L15.842294335937499,29.84378984375L15.6268343359375,29.58618984375L15.4113843359375,29.34568984375L15.3036543359375,29.19118984375L15.1959243359375,29.05378984375L15.0881943359375,28.88198984375L14.9984243359375,28.69308984375L14.872744335937501,28.52138984375L14.7829643359375,28.29808984375L14.6931943359375,28.09198984375L14.5854643359375,27.86878984375L14.5136443359375,27.62828984375L14.4418243359375,27.37068984375L14.4418243359375,27.353489843749998L14.4059243359375,27.353489843749998L14.4059243359375,27.33638984375L14.3341043359375,27.33638984375L14.2981943359375,27.353489843749998L14.2802343359375,27.353489843749998L14.244324335937499,27.405089843749998L14.244324335937499,27.456589843750002L14.2084143359375,27.50808984375L14.1725043359375,27.593989843750002L14.0647843359375,27.80008984375L13.9929643359375,27.92028984375L13.9031843359375,28.02328984375L13.795464335937499,28.14348984375L13.6877343359375,28.28088984375L13.5620443359375,28.41828984375L13.4184143359375,28.53858984375L13.2927243359375,28.64158984375L13.1311343359375,28.72748984375L12.9695433359375,28.83048984375L12.8259063359375,28.88198984375L12.6463593359375,28.93358984375L12.3949933359375,28.93358984375L12.3770383359375,28.86488984375L12.3231743359375,28.83048984375L12.2513553359375,28.65878984375L12.1974913359375,28.59008984375L12.1615823359375,28.46988984375L12.1256723359375,28.33248984375L12.1077178359375,28.21218984375L12.0538537359375,27.93748984375L12.0179443359375,27.76568984375L12.0179443359375,27.216089843749998L12.0538537359375,26.80398984375L12.0897631359375,26.59788984375L12.1256723359375,26.39178984375L12.1615823359375,26.15138984375L12.2334003359375,25.94528984375L12.3052193359375,25.68768984375L12.3770383359375,25.44718984375L12.4847663359375,25.206789843750002L12.5745403359375,24.966289843749998L12.7181773359375,24.70868984375L12.8438603359375,24.451089843749997L12.9874983359375,24.19348984375L13.1670443359375,23.935889843749997L13.3465943359375,23.69548984375L13.5440943359375,23.43788984375L13.7236443359375,23.266089843750002L13.9031843359375,23.04288984375L14.154554335937501,22.819589843750002L14.244324335937499,22.73368984375L14.3700143359375,22.61348984375L14.5495543359375,22.47608984375L14.7291043359375,22.32148984375L15.0343343359375,22.08108984375L15.2497943359375,21.90934984375L15.3036543359375,21.87499984375Z" fill="#FFFFFF" fill-opacity="1"/></g></g></g></svg>