<svg xmlns="http://www.w3.org/2000/svg" xmlns:xlink="http://www.w3.org/1999/xlink" fill="none" version="1.1" width="46" height="46" viewBox="0 0 46 46"><defs><clipPath id="master_svg0_252_5679"><rect x="0" y="0" width="46" height="46" rx="0"/></clipPath><linearGradient x1="0.5" y1="0.5" x2="0.5" y2="1" id="master_svg1_168_5395"><stop offset="3.57142873108387%" stop-color="#FFD4D4" stop-opacity="1"/><stop offset="100%" stop-color="#FF9494" stop-opacity="1"/></linearGradient><clipPath id="master_svg2_252_5680"><rect x="8" y="10" width="30" height="26" rx="0"/></clipPath></defs><g clip-path="url(#master_svg0_252_5679)"><g><g><ellipse cx="23" cy="23" rx="23" ry="23" fill="url(#master_svg1_168_5395)" fill-opacity="1"/></g></g><g clip-path="url(#master_svg2_252_5680)"><g><path d="M18.5868879296875,27.0369C20.0393879296875,28.3163,20.2075079296875,29.6916,18.5975079296875,31.1097C17.6000079296875,31.9877,15.9850079296875,32.515299999999996,13.7625079296875,32.7412C13.6475079296875,32.7531,13.5312579296875,32.7526,13.4156379296875,32.7406C12.6343869296875,32.6583,12.0637619296875,32.0565,12.1012619296875,31.3691L12.1093869296875,31.2792L12.1412619296875,31.0517C12.4137619296875,29.2155,13.0037579296875,27.8711,13.9618879296875,27.0271C15.5718879296875,25.6096,17.1337579296875,25.758,18.5868879296875,27.0369ZM31.8937779296875,13.596513999999999L32.1449779296875,13.663138L32.3906779296875,13.734097C33.0032779296875,13.920252,33.482877929687504,14.34037,33.6912779296875,14.87322C34.6706779296875,17.35297,34.3593779296875,19.86522,32.7806779296875,22.355800000000002C32.1299779296875,23.381700000000002,31.2974779296875,24.352899999999998,30.2843779296875,25.268900000000002L30.0037779296875,25.5175L29.7381779296875,25.742800000000003L29.7306779296875,25.8127C29.5462779296875,27.3045,28.2406779296875,29.2772,25.8349779296875,31.8279L25.6262779296875,32.0484L25.2418779296875,32.4465C24.806877929687502,32.8939,23.9968779296875,32.7693,23.743177929687498,32.240700000000004L23.7131779296875,32.1697L22.368177929687498,28.4496L22.2462779296875,28.3764C21.4905079296875,27.9098,20.7706479296875,27.401,20.0912579296875,26.8533L19.7568879296875,26.576999999999998L19.4293879296875,26.295299999999997C18.4620379296875,25.4422,17.5913879296875,24.5106,16.8293879296875,23.5133L16.7550079296875,23.4131L12.3750119296875,22.18572C11.7587618496875,22.01239,11.5600119296875,21.3521,11.951261929687501,20.937179999999998L12.0031369296875,20.88626L12.0593869296875,20.84076C15.6618879296875,18.11293,18.3200079296875,16.76039,20.2237579296875,16.87305L20.3462579296875,16.88226L20.417507929687503,16.88985L20.5781379296875,16.74901C21.4418879296875,16.00476,22.3462779296875,15.37156,23.2918779296875,14.85101L23.6081779296875,14.681470000000001L23.898777929687498,14.53414C26.537477929687498,13.237389,29.2162779296875,12.918347,31.8937779296875,13.597056L31.8937779296875,13.596513999999999ZM23.819377929687498,18.83497C22.7237779296875,19.78506,22.727477929687502,21.32826,23.8281779296875,22.28214C24.9287779296875,23.23601,26.7093779296875,23.23926,27.8056779296875,22.289720000000003C28.9012779296875,21.33964,28.8974779296875,19.79643,27.7968779296875,18.84256C26.6962779296875,17.88868,24.9156779296875,17.88543,23.819377929687498,18.83497Z" fill="#FFFFFF" fill-opacity="1"/></g></g></g></svg>