<svg xmlns="http://www.w3.org/2000/svg" xmlns:xlink="http://www.w3.org/1999/xlink" fill="none" version="1.1" width="46" height="46" viewBox="0 0 46 46"><defs><clipPath id="master_svg0_252_5858"><rect x="0" y="0" width="46" height="46" rx="0"/></clipPath><linearGradient x1="0.5" y1="0.5" x2="0.5" y2="1" id="master_svg1_168_5518"><stop offset="0%" stop-color="#EAC6FF" stop-opacity="1"/><stop offset="100%" stop-color="#D194FF" stop-opacity="1"/></linearGradient></defs><g clip-path="url(#master_svg0_252_5858)"><g><g><ellipse cx="23" cy="23" rx="23" ry="23" fill="url(#master_svg1_168_5518)" fill-opacity="1"/></g><g transform="matrix(0.8190000057220459,0.5740000009536743,-0.5740000009536743,0.8190000057220459,9.18263439184284,-11.887360003558115)"><path d="M31.704999237060548,32.94199243164063C29.771999237060548,32.94199243164063,28.204999237060548,31.374992431640624,28.204999237060548,29.441992431640625L28.204999237060548,22.941992431640625C25.395069237060547,21.723992431640625,23.53571323706055,18.998992431640623,23.426154907060546,15.938372431640625C23.316597237060545,12.877772431640626,24.976359237060546,10.026822431640625,27.691999237060546,8.610992431640625L27.691999237060546,14.121992431640624C27.691999237060546,14.674272431640624,28.139719237060547,15.121992431640624,28.691999237060546,15.121992431640624L34.15899923706055,15.121992431640624C34.711299237060544,15.121992431640624,35.15899923706055,14.674272431640624,35.15899923706055,14.121992431640624L35.15899923706055,8.610992431640625C40.37069923706055,11.328252431640625,40.923199237060544,18.570602431640623,36.18399923706055,22.046992431640625C36.198699237060545,22.177692431640626,36.205999237060546,22.309292431640625,36.205999237060546,22.440992431640623L36.205999237060546,29.440992431640623C36.205999237060546,31.373992431640627,34.638999237060546,32.94099243164062,32.705999237060546,32.94099243164062L31.704999237060548,32.94199243164063Z" fill="#FFFFFF" fill-opacity="1"/></g></g></g></svg>