<svg xmlns="http://www.w3.org/2000/svg" xmlns:xlink="http://www.w3.org/1999/xlink" fill="none" version="1.1" width="153.30373017054626" height="153.3291368095097" viewBox="0 0 153.30373017054626 153.3291368095097"><defs><clipPath id="master_svg0_168_02935"><rect x="0" y="56.10035705566406" width="112.20071411132812" height="112.27012634277344" rx="0"/></clipPath></defs><g transform="matrix(0.8660253882408142,-0.5,0.5,0.8660253882408142,-28.05017852783203,7.516023556084292)" clip-path="url(#master_svg0_168_02935)"><g><path d="M101.878166015625,106.41826721191407C101.212166015625,106.41826721191407,100.574166015625,106.34806721191407,99.942566015625,106.22176721191406L98.575166015625,112.53696721191406Q98.364766015625,118.94336721191407,94.704166015625,140.96236721191406L17.264666015625,140.96236721191406Q14.971566015625,118.90126721191406,14.403566015625,112.16506721191406L13.190366015625,105.86386721191406C12.191366015625,106.21276721191407,11.141966015625,106.39526721191406,10.083866015625,106.40416721191406C4.543936015625,106.40416721191406,0.055904415625,101.89236721191406,0.055904415625,96.32796721191406C-0.20613198437500002,90.60396721191407,4.360946015625,85.81996721191406,10.087366015625,85.81996721191406C15.813766015625,85.81996721191406,20.380866015625,90.60396721191407,20.118766015625,96.32796721191406C20.118766015625,98.01196721191405,19.662966015625,99.58376721191406,18.940666015625,100.98716721191406L37.334566015625,107.84966721191407L52.783266015625,82.79936721191406C48.126666015625,81.21896721191406,45.295166015625,76.50066721191406,46.089466015625,71.64506721191407C46.883766015625,66.78945721191407,51.070766015625,63.220719811914066,55.987966015625,63.20826721191406C61.527866015625,63.20826721191406,66.036966015625,67.72713721191406,66.036966015625,73.29156721191406C66.036966015625,77.71916721191405,63.161766015625,81.45916721191406,59.185666015625,82.80646721191405L74.634266015625,107.84966721191407L92.845866015625,100.65736721191406C92.191766015625,99.30756721191406,91.849066015625,97.82806721191406,91.843066015625,96.32796721191406C91.843066015625,90.76356721191407,96.359166015625,86.24466721191406,101.892166015625,86.24466721191406C107.432166015625,86.24466721191406,111.927166015625,90.74956721191407,111.927166015625,96.32796721191406C111.931166015625,101.88856721191407,107.435166015625,106.40276721191407,101.878166015625,106.41826721191407ZM94.718266015625,152.47706721191406C90.707066015625,161.03766721191408,85.812266015625,163.99926721191406,77.495466015625,163.99926721191406L34.459466015625,163.99926721191406C28.127166015625,163.99926721191406,20.763966015625,161.03766721191408,17.264666015625,152.47706721191406L17.264666015625,149.61416721191407L94.732266015625,149.61416721191407L94.732266015625,152.47706721191406L94.718266015625,152.47706721191406Z" fill="#FFA536" fill-opacity="0.07999999821186066"/></g></g></svg>