<svg xmlns="http://www.w3.org/2000/svg" xmlns:xlink="http://www.w3.org/1999/xlink" fill="none" version="1.1" width="20" height="20" viewBox="0 0 20 20"><defs><clipPath id="master_svg0_252_6365"><rect x="0" y="0" width="20" height="20" rx="0"/></clipPath></defs><g clip-path="url(#master_svg0_252_6365)"><g><path d="M12.47729822265625,8.526638515625C12.28385822265625,8.088314515625001,11.95975822265625,7.720434515625,11.549298222656251,7.473310515625C11.12920822265625,7.230156515625,10.65058822265625,7.106583715625,10.16529822265625,7.115976810625C9.79462822265625,7.115976810625,9.45195822265625,7.181310015625,9.13729822265625,7.313309515625C8.82662822265625,7.441022515625,8.54865622265625,7.636968515625,8.32396122265625,7.886643515625C8.07862722265625,8.171978515625,7.89596022265625,8.499978515625,7.78662722265625,8.853308515625C7.64998302265625,9.279758515625,7.58334207265625,9.725538515625,7.58929419565625,10.173308515625C7.58929419565625,11.167978515625,7.83596122265625,11.934638515625,8.32662722265625,12.470648515625001C8.81862822265625,13.007978515625,9.43995822265625,13.277308515625,10.18929822265625,13.277308515625C10.514628222656249,13.274648515625,10.83729822265625,13.210648515625,11.13995822265625,13.094648515625C10.90744822265625,12.935938515625,10.66164822265625,12.797638515625,10.40529822265625,12.681308515625C10.196408222656249,12.589548515625001,9.99453822265625,12.482598515625,9.80129822265625,12.361308515625C9.69521822265625,12.291338515625,9.63350822265625,12.170948515625,9.63862822265625,12.043978515625C9.63862822265625,11.922648515625,9.69729822265625,11.807978515624999,9.79462822265625,11.730648515624999C9.88839822265625,11.644288515625,10.01114822265625,11.596238515625,10.13862822265625,11.595978515625C10.51862822265625,11.595978515625,11.15462822265625,11.893308515625,12.04529822265625,12.491978515625C12.309298222656249,12.203978515625,12.50529822265625,11.865308515625,12.61862822265625,11.499978515625C12.74795822265625,11.070638515625,12.81062822265625,10.622638515624999,12.80262822265625,10.173308515625C12.80262822265625,9.539978515625,12.694628222656249,8.989308515625,12.47729822265625,8.526638515625Z" fill="#237EFF" fill-opacity="1"/></g><g><path d="M14.76396728515625,15.4360283203125C14.65296728515625,15.5625283203125,14.49226728515625,15.6341283203125,14.32396728515625,15.6320283203125C14.14876728515625,15.6224283203125,13.97746728515625,15.5761283203125,13.82126728515625,15.4960283203125C13.57996728515625,15.3824283203125,13.34686728515625,15.2518283203125,13.12396728515625,15.1053283203125C12.85726728515625,14.9360283203125,12.56396728515625,14.7347283203125,12.24666728515625,14.5080283203125C11.65466728515625,14.8093283203125,10.93066728515625,14.9587283203125,10.06926728515625,14.9587283203125C9.37329728515625,14.9587283203125,8.74929728515625,14.8480283203125,8.19463728515625,14.6253283203125C7.66349728515625,14.4177283203125,7.18787728515625,14.0896283203125,6.80529728515625,13.6667283203125C6.42251728515625,13.2351283203125,6.13412728515625,12.7282283203125,5.95862728515625,12.1787283203125C5.76929728515625,11.6053283203125,5.67462728515625,10.9787283203125,5.67462728515625,10.3027283203125C5.66738728515625,9.6595183203125,5.76742728515625,9.0196383203125,5.97062728515625,8.4093583203125C6.15001728515625,7.8645083203125,6.44264728515625,7.3637683203125,6.82929728515625,6.9400283203125C7.21098728515625,6.5323383203125,7.67941728515625,6.2156483203125,8.19996728515625,6.0133583203125C8.73729728515625,5.8000283203125,9.34929728515625,5.6920283203125,10.03326728515625,5.6920283203125C10.96266728515625,5.6920283203125,11.76126728515625,5.8800283203125,12.42796728515625,6.2586983203125C13.08526728515625,6.6253583203125,13.61326728515625,7.1866983203125,13.93996728515625,7.8653583203125C14.28266728515625,8.5600283203125,14.45326728515625,9.3760283203125,14.45326728515625,10.3147283203125C14.45326728515625,11.7360283203125,14.06796728515625,12.8640283203125,13.29726728515625,13.6947283203125C13.57726728515625,13.8840283203125,13.86796728515625,14.0587283203125,14.16666728515625,14.2187283203125C14.47996728515625,14.3880283203125,14.68926728515625,14.5213283203125,14.79326728515625,14.6213283203125C14.89326728515625,14.7200283203125,14.94396728515625,14.8613283203125,14.94396728515625,15.0453283203125C14.94396728515625,15.1760283203125,14.88396728515625,15.3053283203125,14.76526728515625,15.4360283203125L14.76396728515625,15.4360283203125ZM18.31866728515625,15.3507283203125C19.36116728515625,13.7461283203125,19.91556728515625,11.8735283203125,19.91466728515625,9.9600283203125C19.91466728515625,4.4706983203125,15.45066728515625,0.0040283203125,9.95996728515625,0.0040283203125C4.47063728515625,0.0040288485475,0.00396728515625,4.4706983203125,0.00396728515625,9.9600283203125C0.00396728515625,15.4480283203125,4.47063728515625,19.9133283203125,9.95996728515625,19.9147283203125C11.47176728515625,19.9122283203125,12.96326728515625,19.5657283203125,14.32126728515625,18.9013283203125L17.49996728515625,19.8573283203125C17.97256728515625,20.0002283203125,18.48546728515625,19.8715283203125,18.83476728515625,19.5225283203125C19.18406728515625,19.1735283203125,19.31306728515625,18.6607283203125,19.17066728515625,18.1880283203125L18.31866728515625,15.3507283203125Z" fill="#237EFF" fill-opacity="1"/></g></g></svg>