<svg xmlns="http://www.w3.org/2000/svg" xmlns:xlink="http://www.w3.org/1999/xlink" fill="none" version="1.1" width="20" height="20" viewBox="0 0 20 20"><defs><clipPath id="master_svg0_168_02688"><rect x="0" y="0" width="20" height="20" rx="0"/></clipPath></defs><g clip-path="url(#master_svg0_168_02688)"><g><path d="M17.77543125,6.2011675L7.69726125,12.0214875L7.63672125,12.0624975C7.55664125,12.1035175,7.47461125,12.1230475,7.37305125,12.1230475C7.15039125,12.1230475,6.96680125,12.0019475,6.86523125,11.8183575L6.82422125,11.7382775L5.22265125,8.2480475C5.203121250000001,8.207027499999999,5.203121250000001,8.1679675,5.203121250000001,8.1269575C5.203121250000001,7.9648475,5.32422125,7.8417975,5.48828125,7.8417975C5.54883125,7.8417975,5.60937125,7.8613275,5.66992125,7.9023475L7.55664125,9.2421875C7.69726125,9.322267499999999,7.86133125,9.3828175,8.04297125,9.3828175C8.14453125,9.3828175,8.24414125,9.363277499999999,8.34765125,9.322267499999999L17.19143125,5.3867175C15.60933125,3.5234375,12.99413125,2.3046875,10.03125125,2.3046875C5.20508125,2.3046875,1.26953125,5.572267500000001,1.26953125,9.6074175C1.26953125,11.7968775,2.44531125,13.7851875,4.29101125,15.1249875C4.43164125,15.2265875,4.533201249999999,15.4101875,4.533201249999999,15.5917875C4.533201249999999,15.6523875,4.51367125,15.7128875,4.492191249999999,15.7734875C4.35156125,16.3202875,4.10547125,17.2148875,4.10547125,17.253887499999998C4.085941249999999,17.3144875,4.064451249999999,17.3944875,4.064451249999999,17.4765875C4.064451249999999,17.6386875,4.18555125,17.7616875,4.349611250000001,17.7616875C4.41015125,17.7616875,4.470701249999999,17.7421875,4.51172125,17.7011875L6.41797125,16.5859875C6.55859125,16.5058875,6.72265125,16.4452875,6.88476125,16.4452875C6.96484125,16.4452875,7.06640125,16.4648875,7.14844125,16.4862875C8.04101125,16.7499875,9.015621249999999,16.892587499999998,10.00976125,16.892587499999998C14.83403125,16.890587500000002,18.76953125,13.6230875,18.76953125,9.589847500000001C18.76953125,8.371097500000001,18.40433125,7.2167975,17.77543125,6.2011675Z" fill="#09BB07" fill-opacity="1"/></g></g></svg>